<svg width="659px" height="122.8px" xmlns="http://www.w3.org/2000/svg" viewBox="-79.51999511718748 13.620001220703124 659.039990234375 122.75999755859375" style="background: rgba(0, 0, 0, 0) none repeat scroll 0% 0%" preserveAspectRatio="xMidYMid"><defs><linearGradient id="editing-shiny-gradient" x1="0.04322727117869957" x2="0.9567727288213004" y1="0.2966316784620999" y2="0.7033683215379001" gradientUnits="objectBoundingBox"><stop offset="0" stop-color="#3987df"></stop><stop offset="0.5" stop-color="#c33030"></stop><stop offset="1" stop-color="#5a1a80"></stop></linearGradient><linearGradient id="editing-shiny-gradient2" x1="0" x2="0" y1="0" y2="1"><stop offset="0.2" stop-color="#ffffff" stop-opacity="0.8"></stop><stop offset="0.8" stop-color="#ffffff" stop-opacity="0"></stop></linearGradient><filter id="editing-shiny2" x="-100%" y="-100%" width="300%" height="300%"><feMorphology operator="erode" radius="2"></feMorphology></filter><filter id="editing-shiny" x="-100%" y="-100%" width="300%" height="300%"><feFlood flood-color="#fff" result="flood"></feFlood><feConvolveMatrix in="SourceGraphic" result="conv" order="8,8" divisor="1" kernelMatrix="0 0 0 0 0 0 0 0 0 0 0 1 1 0 0 0 0 0 0 1 1 0 0 0 0 0 1 0 0 1 0 0 0 0 1 0 0 1 0 0 0 1 0 0 0 0 1 0 0 1 1 0 0 1 1 0 0 0 0 1 1 0 0 0 "></feConvolveMatrix><feOffset dx="0" dy="4" in="conv" result="offset"></feOffset><feComposite operator="in" in="flood" in2="offset" result="comp"></feComposite><feGaussianBlur in="offset" stdDeviation="3" result="shadow"></feGaussianBlur><feColorMatrix in="shadow" type="matrix" values="0.7 0 0 0 0  0 0.7 0 0 0  0 0 0.7 0 0  0 0 0 0.3 0" result="dark-shadow"></feColorMatrix><feOffset dx="0" dy="4" in="dark-shadow" result="offset-shadow"></feOffset><feOffset dx="0" dy="2" in="conv" result="offset-2"></feOffset><feComposite operator="out" in="offset" in2="offset-2" result="edge-diff"></feComposite><feGaussianBlur in="edge-diff" stdDeviation="1" result="edge-blur"></feGaussianBlur><feColorMatrix in="edge-blur" result="edge-shadow" type="matrix" values="0 0 0 0 0  0 0 0 0 0  0 0 0 0 0  0 0 0 0.5 0"></feColorMatrix><feComposite operator="in" in="edge-shadow" in2="offset" result="edge-shadow-in"></feComposite><feOffset dx="0" dy="1" in="edge-shadow-in" result="edge-shadow-final"></feOffset><feMerge result="out"><feMergeNode in="offset-shadow"></feMergeNode><feMergeNode in="comp"></feMergeNode><feMergeNode in="edge-shadow-final"></feMergeNode><feMergeNode in="SourceGraphic"></feMergeNode></feMerge></filter></defs><g filter="url(#editing-shiny)"><g transform="translate(15.9,104.5)"><path d="M 14.3 0 L 0.4 0 L 8.5 -42.2 L 22.6 -42.2 L 14.3 0 Z M 70.1 1.3 L 70.1 1.3 L 70.1 1.3 Q 62.3 1.3 62.3 -4.7 L 62.3 -4.7 L 62.3 -4.7 Q 62.3 -7.4 63.5 -12.4 L 63.5 -12.4 L 63.5 -12.4 Q 64.6 -17.5 65 -19.6 L 65 -19.6 L 65 -19.6 Q 65.9 -24.3 65.9 -25.7 L 65.9 -25.7 L 65.9 -25.7 Q 65.9 -29 63.4 -29 L 63.4 -29 L 63.4 -29 Q 61.8 -29 60.3 -26.8 L 60.3 -26.8 L 60.3 -26.8 Q 58.8 -24.6 58 -20.2 L 58 -20.2 L 54.1 0 L 41.6 1.3 L 45.1 -16.1 L 45.1 -16.1 Q 45.6 -19 46.1 -22.3 L 46.1 -22.3 L 46.1 -22.3 Q 46.7 -25.5 46.7 -26.1 L 46.7 -26.1 L 46.7 -26.1 Q 46.7 -29 44.5 -29 L 44.5 -29 L 44.5 -29 Q 43 -29 41.4 -26.8 L 41.4 -26.8 L 41.4 -26.8 Q 39.8 -24.6 38.9 -20.2 L 38.9 -20.2 L 35 0 L 22.4 1.3 L 29.1 -32.6 L 39.5 -33.9 L 38.5 -27.5 L 38.5 -27.5 Q 40.1 -30.9 43.2 -32.4 L 43.2 -32.4 L 43.2 -32.4 Q 46.3 -33.9 51.1 -33.9 L 51.1 -33.9 L 51.1 -33.9 Q 53.8 -33.9 55.6 -32.6 L 55.6 -32.6 L 55.6 -32.6 Q 57.4 -31.2 58 -29.1 L 58 -29.1 L 58 -29.1 Q 59.1 -31.3 61.9 -32.6 L 61.9 -32.6 L 61.9 -32.6 Q 64.6 -33.9 68.1 -33.9 L 68.1 -33.9 L 68.1 -33.9 Q 71.5 -33.9 73.2 -33.2 L 73.2 -33.2 L 73.2 -33.2 Q 74.9 -32.5 75.9 -31.2 L 75.9 -31.2 L 75.9 -31.2 Q 77.6 -29 77.6 -24.9 L 77.6 -24.9 L 77.6 -24.9 Q 77.6 -20.9 75.9 -12.5 L 75.9 -12.5 L 75.9 -12.5 Q 75 -8.4 75 -6.9 L 75 -6.9 L 75 -6.9 Q 75 -5.4 75.9 -4.5 L 75.9 -4.5 L 75.9 -4.5 Q 76.7 -3.6 78 -3.5 L 78 -3.5 L 78 -3.5 Q 77.4 -1.3 75.2 0 L 75.2 0 L 75.2 0 Q 73 1.3 70.1 1.3 Z M 85.7 -1.9 L 85.7 -1.9 L 85.7 -1.9 Q 84.2 -3.6 83.5 -6.2 L 83.5 -6.2 L 83.5 -6.2 Q 82.9 -8.8 82.9 -13.1 L 82.9 -13.1 L 82.9 -13.1 Q 82.9 -17.4 84.3 -21.3 L 84.3 -21.3 L 84.3 -21.3 Q 85.8 -25.2 88.5 -28 L 88.5 -28 L 88.5 -28 Q 94 -33.9 103.1 -33.9 L 103.1 -33.9 L 103.1 -33.9 Q 106.4 -33.9 108.7 -32.8 L 108.7 -32.8 L 119.7 -33.9 L 114.9 -9 L 114.9 -9 Q 114.8 -8.2 114.8 -6.8 L 114.8 -6.8 L 114.8 -6.8 Q 114.8 -5.4 115.6 -4.5 L 115.6 -4.5 L 115.6 -4.5 Q 116.5 -3.6 117.8 -3.5 L 117.8 -3.5 L 117.8 -3.5 Q 117.1 -1.3 114.8 0 L 114.8 0 L 114.8 0 Q 112.5 1.3 109.8 1.3 L 109.8 1.3 L 109.8 1.3 Q 107.2 1.3 105.4 0.3 L 105.4 0.3 L 105.4 0.3 Q 103.7 -0.7 103.2 -2.4 L 103.2 -2.4 L 103.2 -2.4 Q 102.1 -0.8 100 0.3 L 100 0.3 L 100 0.3 Q 97.8 1.3 94.9 1.3 L 94.9 1.3 L 94.9 1.3 Q 92 1.3 89.6 0.5 L 89.6 0.5 L 89.6 0.5 Q 87.2 -0.3 85.7 -1.9 Z M 99.2 -27.9 L 99.2 -27.9 L 99.2 -27.9 Q 98.5 -26.8 97.9 -24.8 L 97.9 -24.8 L 97.9 -24.8 Q 97.2 -22.9 96.2 -17.6 L 96.2 -17.6 L 96.2 -17.6 Q 95.1 -12.4 95.1 -8.7 L 95.1 -8.7 L 95.1 -8.7 Q 95.1 -5 95.7 -3.9 L 95.7 -3.9 L 95.7 -3.9 Q 96.3 -2.8 97.3 -2.8 L 97.3 -2.8 L 97.3 -2.8 Q 99.3 -2.8 100.8 -4.8 L 100.8 -4.8 L 100.8 -4.8 Q 102.3 -6.7 102.9 -10.2 L 102.9 -10.2 L 106.3 -28.9 L 106.3 -28.9 Q 105 -30.1 103.4 -30.1 L 103.4 -30.1 L 103.4 -30.1 Q 101.8 -30.1 100.9 -29.6 L 100.9 -29.6 L 100.9 -29.6 Q 100 -29.1 99.2 -27.9 Z M 127.4 -26.8 L 127.4 -26.8 L 127.4 -26.8 Q 129.6 -29.8 132.9 -31.9 L 132.9 -31.9 L 132.9 -31.9 Q 136.2 -33.9 140.2 -33.9 L 140.2 -33.9 L 140.2 -33.9 Q 144.3 -33.9 146.2 -32.6 L 146.2 -32.6 L 158.7 -33.9 L 154.4 -9.3 L 154.4 -9.3 Q 152.1 3.2 147.4 8.1 L 147.4 8.1 L 147.4 8.1 Q 142.8 12.8 134 12.8 L 134 12.8 L 134 12.8 Q 127.3 12.8 123.5 10.7 L 123.5 10.7 L 123.5 10.7 Q 119.6 8.6 119.6 5.1 L 119.6 5.1 L 119.6 5.1 Q 119.6 2.4 121.6 0.9 L 121.6 0.9 L 121.6 0.9 Q 123.6 -0.6 126.7 -0.6 L 126.7 -0.6 L 126.7 -0.6 Q 129.3 -0.6 131.4 0.6 L 131.4 0.6 L 131.4 0.6 Q 132.6 1.3 133.2 2.2 L 133.2 2.2 L 133.2 2.2 Q 131.7 3.5 131.7 5.6 L 131.7 5.6 L 131.7 5.6 Q 131.7 8.3 134.3 8.3 L 134.3 8.3 L 134.3 8.3 Q 138.6 8.3 141 -1.8 L 141 -1.8 L 141 -1.8 Q 141.7 -4.5 142.3 -7.3 L 142.3 -7.3 L 142.3 -7.3 Q 139.4 -3.8 132.9 -3.8 L 132.9 -3.8 L 132.9 -3.8 Q 128.3 -3.8 125.7 -6 L 125.7 -6 L 125.7 -6 Q 123.1 -8.1 123.1 -13.3 L 123.1 -13.3 L 123.1 -13.3 Q 123.1 -16.4 124.2 -20.1 L 124.2 -20.1 L 124.2 -20.1 Q 125.3 -23.7 127.4 -26.8 Z M 135.7 -13.1 L 135.7 -13.1 L 135.7 -13.1 Q 135.7 -8.7 138 -8.7 L 138 -8.7 L 138 -8.7 Q 139.5 -8.7 141 -10.4 L 141 -10.4 L 141 -10.4 Q 142.1 -11.7 142.6 -13.7 L 142.6 -13.7 L 145.9 -30.1 L 145.9 -30.1 Q 145.5 -30.2 145.2 -30.3 L 145.2 -30.3 L 145.2 -30.3 Q 144.6 -30.6 143.7 -30.6 L 143.7 -30.6 L 143.7 -30.6 Q 139.8 -30.6 137.5 -24.2 L 137.5 -24.2 L 137.5 -24.2 Q 135.7 -19.2 135.7 -13.1 Z M 187.1 -10.8 L 187.1 -10.8 L 187.1 -10.8 Q 188.7 -9.7 188.7 -7.3 L 188.7 -7.3 L 188.7 -7.3 Q 188.7 -4.9 187.5 -3.4 L 187.5 -3.4 L 187.5 -3.4 Q 186.3 -1.9 184.3 -0.8 L 184.3 -0.8 L 184.3 -0.8 Q 180.2 1.3 175.8 1.3 L 175.8 1.3 L 175.8 1.3 Q 171.4 1.3 168.8 0.3 L 168.8 0.3 L 168.8 0.3 Q 166.2 -0.6 164.5 -2.4 L 164.5 -2.4 L 164.5 -2.4 Q 161.1 -5.8 161.1 -12 L 161.1 -12 L 161.1 -12 Q 161.1 -21.7 166.3 -27.6 L 166.3 -27.6 L 166.3 -27.6 Q 172 -33.9 181.8 -33.9 L 181.8 -33.9 L 181.8 -33.9 Q 187.8 -33.9 190.8 -31.4 L 190.8 -31.4 L 190.8 -31.4 Q 193.1 -29.4 193.1 -26.3 L 193.1 -26.3 L 193.1 -26.3 Q 193.1 -15 173.6 -15 L 173.6 -15 L 173.6 -15 Q 173.4 -13.4 173.4 -12 L 173.4 -12 L 173.4 -12 Q 173.4 -9 174.7 -7.9 L 174.7 -7.9 L 174.7 -7.9 Q 176 -6.8 178.4 -6.8 L 178.4 -6.8 L 178.4 -6.8 Q 180.9 -6.8 183.5 -7.9 L 183.5 -7.9 L 183.5 -7.9 Q 186.1 -9 187.1 -10.8 Z M 174.1 -17.8 L 174.1 -17.8 L 174.1 -17.8 Q 178.6 -17.8 181.3 -20.6 L 181.3 -20.6 L 181.3 -20.6 Q 183.9 -23.3 183.9 -27.6 L 183.9 -27.6 L 183.9 -27.6 Q 183.9 -29.1 183.3 -29.9 L 183.3 -29.9 L 183.3 -29.9 Q 182.8 -30.7 181.7 -30.7 L 181.7 -30.7 L 181.7 -30.7 Q 180.6 -30.7 179.7 -30.2 L 179.7 -30.2 L 179.7 -30.2 Q 178.8 -29.8 177.8 -28.4 L 177.8 -28.4 L 177.8 -28.4 Q 175.4 -25.2 174.1 -17.8 Z M 214.4 -22.5 L 214.4 -22.5 L 214.4 -22.5 Q 215.3 -24.8 215.3 -26.9 L 215.3 -26.9 L 215.3 -26.9 Q 215.3 -30.7 212.2 -30.7 L 212.2 -30.7 L 212.2 -30.7 Q 210.6 -30.7 209.3 -29.2 L 209.3 -29.2 L 209.3 -29.2 Q 208 -27.8 208 -26 L 208 -26 L 208 -26 Q 208 -24.7 209 -23.7 L 209 -23.7 L 209 -23.7 Q 210.5 -22.3 214.3 -20 L 214.3 -20 L 214.3 -20 Q 218.1 -17.7 219.5 -15.8 L 219.5 -15.8 L 219.5 -15.8 Q 220.9 -13.9 220.9 -11.3 L 220.9 -11.3 L 220.9 -11.3 Q 220.9 -8.7 219.7 -6.3 L 219.7 -6.3 L 219.7 -6.3 Q 218.4 -4 216.2 -2.3 L 216.2 -2.3 L 216.2 -2.3 Q 211.4 1.3 203.7 1.3 L 203.7 1.3 L 203.7 1.3 Q 199.6 1.3 196.3 -0.9 L 196.3 -0.9 L 196.3 -0.9 Q 193.2 -3 193.2 -5.5 L 193.2 -5.5 L 193.2 -5.5 Q 193.2 -8 195 -9.5 L 195 -9.5 L 195 -9.5 Q 196.8 -10.9 199.5 -10.9 L 199.5 -10.9 L 199.5 -10.9 Q 202.2 -10.9 203.8 -9.9 L 203.8 -9.9 L 203.8 -9.9 Q 203 -7.8 203 -6.4 L 203 -6.4 L 203 -6.4 Q 203 -2.2 206.6 -2.2 L 206.6 -2.2 L 206.6 -2.2 Q 208.1 -2.2 209.2 -3.1 L 209.2 -3.1 L 209.2 -3.1 Q 210.2 -4.1 210.2 -5.8 L 210.2 -5.8 L 210.2 -5.8 Q 210.2 -9 204.7 -12.5 L 204.7 -12.5 L 204.7 -12.5 Q 200.2 -15.4 199.2 -16.6 L 199.2 -16.6 L 199.2 -16.6 Q 197.4 -18.6 197.4 -21.2 L 197.4 -21.2 L 197.4 -21.2 Q 197.4 -23.7 198.7 -26.2 L 198.7 -26.2 L 198.7 -26.2 Q 199.9 -28.6 202.1 -30.3 L 202.1 -30.3 L 202.1 -30.3 Q 206.8 -33.9 214.9 -33.9 L 214.9 -33.9 L 214.9 -33.9 Q 219.1 -33.9 221.5 -32.3 L 221.5 -32.3 L 221.5 -32.3 Q 224 -30.6 224 -27.8 L 224 -27.8 L 224 -27.8 Q 224 -25 222.3 -23.4 L 222.3 -23.4 L 222.3 -23.4 Q 220.6 -21.8 217.5 -21.8 L 217.5 -21.8 L 217.5 -21.8 Q 215.4 -21.8 214.4 -22.5 Z M 265.5 -20.6 L 278.4 -21.8 L 278.4 -21.8 Q 273.8 -11.7 273.8 0.1 L 273.8 0.1 L 273.8 0.1 Q 272.1 1.3 269.5 1.3 L 269.5 1.3 L 269.5 1.3 Q 267 1.3 265.4 0.1 L 265.4 0.1 L 265.4 0.1 Q 263.8 -1.1 263.5 -2.3 L 263.5 -2.3 L 263.5 -2.3 Q 261.9 -0.6 259.3 0.3 L 259.3 0.3 L 259.3 0.3 Q 256.7 1.3 253.9 1.3 L 253.9 1.3 L 253.9 1.3 Q 251.2 1.3 248.8 0.4 L 248.8 0.4 L 248.8 0.4 Q 246.4 -0.5 244.5 -2.5 L 244.5 -2.5 L 244.5 -2.5 Q 240.4 -6.8 240.4 -15.1 L 240.4 -15.1 L 240.4 -15.1 Q 240.4 -27.9 247.3 -35.6 L 247.3 -35.6 L 247.3 -35.6 Q 254.3 -43.5 266.8 -43.5 L 266.8 -43.5 L 266.8 -43.5 Q 275.5 -43.5 278.5 -39 L 278.5 -39 L 278.5 -39 Q 279.5 -37.6 279.5 -35.9 L 279.5 -35.9 L 279.5 -35.9 Q 279.5 -34.2 278.8 -32.8 L 278.8 -32.8 L 278.8 -32.8 Q 278 -31.4 276.9 -30.2 L 276.9 -30.2 L 276.9 -30.2 Q 274.1 -27.6 270.7 -27.6 L 270.7 -27.6 L 270.7 -27.6 Q 269.4 -27.6 268.1 -28.1 L 268.1 -28.1 L 268.1 -28.1 Q 268.4 -30 268.4 -32.3 L 268.4 -32.3 L 268.4 -32.3 Q 268.4 -34.5 268.2 -35.5 L 268.2 -35.5 L 268.2 -35.5 Q 268 -36.5 267.6 -37.4 L 267.6 -37.4 L 267.6 -37.4 Q 266.8 -39.1 265 -39.1 L 265 -39.1 L 265 -39.1 Q 263.2 -39.1 261.1 -37.1 L 261.1 -37.1 L 261.1 -37.1 Q 259.1 -35.2 257.5 -32 L 257.5 -32 L 257.5 -32 Q 254 -24.8 254 -16.2 L 254 -16.2 L 254 -16.2 Q 254 -12.2 255.6 -9.4 L 255.6 -9.4 L 255.6 -9.4 Q 257.2 -6.3 260.2 -6.3 L 260.2 -6.3 L 260.2 -6.3 Q 261.2 -6.3 262.1 -6.8 L 262.1 -6.8 L 262.1 -6.8 Q 263 -7.4 263.4 -7.7 L 263.4 -7.7 L 265.5 -20.6 Z M 284.3 -1.9 L 284.3 -1.9 L 284.3 -1.9 Q 282.8 -3.6 282.1 -6.2 L 282.1 -6.2 L 282.1 -6.2 Q 281.5 -8.8 281.5 -13.1 L 281.5 -13.1 L 281.5 -13.1 Q 281.5 -17.4 282.9 -21.3 L 282.9 -21.3 L 282.9 -21.3 Q 284.4 -25.2 287.1 -28 L 287.1 -28 L 287.1 -28 Q 292.6 -33.9 301.7 -33.9 L 301.7 -33.9 L 301.7 -33.9 Q 305 -33.9 307.3 -32.8 L 307.3 -32.8 L 318.3 -33.9 L 313.5 -9 L 313.5 -9 Q 313.3 -8.2 313.3 -6.8 L 313.3 -6.8 L 313.3 -6.8 Q 313.3 -5.4 314.2 -4.5 L 314.2 -4.5 L 314.2 -4.5 Q 315.1 -3.6 316.4 -3.5 L 316.4 -3.5 L 316.4 -3.5 Q 315.7 -1.3 313.4 0 L 313.4 0 L 313.4 0 Q 311 1.3 308.4 1.3 L 308.4 1.3 L 308.4 1.3 Q 305.8 1.3 304 0.3 L 304 0.3 L 304 0.3 Q 302.3 -0.7 301.8 -2.4 L 301.8 -2.4 L 301.8 -2.4 Q 300.7 -0.8 298.6 0.3 L 298.6 0.3 L 298.6 0.3 Q 296.4 1.3 293.5 1.3 L 293.5 1.3 L 293.5 1.3 Q 290.6 1.3 288.2 0.5 L 288.2 0.5 L 288.2 0.5 Q 285.8 -0.3 284.3 -1.9 Z M 297.8 -27.9 L 297.8 -27.9 L 297.8 -27.9 Q 297.1 -26.8 296.4 -24.8 L 296.4 -24.8 L 296.4 -24.8 Q 295.8 -22.9 294.8 -17.6 L 294.8 -17.6 L 294.8 -17.6 Q 293.7 -12.4 293.7 -8.7 L 293.7 -8.7 L 293.7 -8.7 Q 293.7 -5 294.3 -3.9 L 294.3 -3.9 L 294.3 -3.9 Q 294.9 -2.8 295.9 -2.8 L 295.9 -2.8 L 295.9 -2.8 Q 297.9 -2.8 299.4 -4.8 L 299.4 -4.8 L 299.4 -4.8 Q 300.9 -6.7 301.5 -10.2 L 301.5 -10.2 L 304.9 -28.9 L 304.9 -28.9 Q 303.6 -30.1 302 -30.1 L 302 -30.1 L 302 -30.1 Q 300.4 -30.1 299.5 -29.6 L 299.5 -29.6 L 299.5 -29.6 Q 298.6 -29.1 297.8 -27.9 Z M 337 -3.5 L 337 -3.5 L 337 -3.5 Q 335 1.3 328.7 1.3 L 328.7 1.3 L 328.7 1.3 Q 325.5 1.3 323.5 -1 L 323.5 -1 L 323.5 -1 Q 321.8 -2.8 321.8 -4.9 L 321.8 -4.9 L 321.8 -4.9 Q 321.8 -9.7 324 -20.2 L 324 -20.2 L 328.7 -44.8 L 341.7 -46.1 L 335.5 -13.7 L 335.5 -13.7 Q 334.4 -9 334.4 -7.3 L 334.4 -7.3 L 334.4 -7.3 Q 334.4 -3.6 337 -3.5 Z M 357.8 -3.5 L 357.8 -3.5 L 357.8 -3.5 Q 355.8 1.3 349.4 1.3 L 349.4 1.3 L 349.4 1.3 Q 346.2 1.3 344.2 -1 L 344.2 -1 L 344.2 -1 Q 342.5 -2.8 342.5 -4.9 L 342.5 -4.9 L 342.5 -4.9 Q 342.5 -9.7 344.8 -20.2 L 344.8 -20.2 L 349.4 -44.8 L 362.4 -46.1 L 356.2 -13.7 L 356.2 -13.7 Q 355.1 -9 355.1 -7.3 L 355.1 -7.3 L 355.1 -7.3 Q 355.1 -3.6 357.8 -3.5 Z M 389.1 -10.8 L 389.1 -10.8 L 389.1 -10.8 Q 390.7 -9.7 390.7 -7.3 L 390.7 -7.3 L 390.7 -7.3 Q 390.7 -4.9 389.5 -3.4 L 389.5 -3.4 L 389.5 -3.4 Q 388.3 -1.9 386.3 -0.8 L 386.3 -0.8 L 386.3 -0.8 Q 382.2 1.3 377.8 1.3 L 377.8 1.3 L 377.8 1.3 Q 373.4 1.3 370.8 0.3 L 370.8 0.3 L 370.8 0.3 Q 368.2 -0.6 366.5 -2.4 L 366.5 -2.4 L 366.5 -2.4 Q 363.1 -5.8 363.1 -12 L 363.1 -12 L 363.1 -12 Q 363.1 -21.7 368.3 -27.6 L 368.3 -27.6 L 368.3 -27.6 Q 373.9 -33.9 383.7 -33.9 L 383.7 -33.9 L 383.7 -33.9 Q 389.8 -33.9 392.8 -31.4 L 392.8 -31.4 L 392.8 -31.4 Q 395.1 -29.4 395.1 -26.3 L 395.1 -26.3 L 395.1 -26.3 Q 395.1 -15 375.6 -15 L 375.6 -15 L 375.6 -15 Q 375.4 -13.4 375.4 -12 L 375.4 -12 L 375.4 -12 Q 375.4 -9 376.7 -7.9 L 376.7 -7.9 L 376.7 -7.9 Q 378 -6.8 380.4 -6.8 L 380.4 -6.8 L 380.4 -6.8 Q 382.9 -6.8 385.4 -7.9 L 385.4 -7.9 L 385.4 -7.9 Q 388 -9 389.1 -10.8 Z M 376.1 -17.8 L 376.1 -17.8 L 376.1 -17.8 Q 380.6 -17.8 383.2 -20.6 L 383.2 -20.6 L 383.2 -20.6 Q 385.9 -23.3 385.9 -27.6 L 385.9 -27.6 L 385.9 -27.6 Q 385.9 -29.1 385.3 -29.9 L 385.3 -29.9 L 385.3 -29.9 Q 384.8 -30.7 383.7 -30.7 L 383.7 -30.7 L 383.7 -30.7 Q 382.6 -30.7 381.7 -30.2 L 381.7 -30.2 L 381.7 -30.2 Q 380.7 -29.8 379.8 -28.4 L 379.8 -28.4 L 379.8 -28.4 Q 377.4 -25.2 376.1 -17.8 Z M 417.3 -18 L 417.3 -18 L 417.3 -18 Q 419.6 -22.1 419.6 -26.2 L 419.6 -26.2 L 419.6 -26.2 Q 419.6 -29 417.6 -29 L 417.6 -29 L 417.6 -29 Q 416.1 -29 414.5 -26.4 L 414.5 -26.4 L 414.5 -26.4 Q 412.8 -23.7 412.3 -20.4 L 412.3 -20.4 L 409 0 L 395.7 1.3 L 402.2 -32.6 L 412.8 -33.9 L 411.6 -27.5 L 411.6 -27.5 Q 414.8 -33.9 421.8 -33.9 L 421.8 -33.9 L 421.8 -33.9 Q 425.5 -33.9 427.6 -32 L 427.6 -32 L 427.6 -32 Q 429.6 -30.1 429.6 -26.1 L 429.6 -26.1 L 429.6 -26.1 Q 429.6 -22.2 427 -19.7 L 427 -19.7 L 427 -19.7 Q 424.4 -17.2 420 -17.2 L 420 -17.2 L 420 -17.2 Q 418.1 -17.2 417.3 -18 Z M 450.9 -7.2 L 450.9 -7.2 L 450.9 -7.2 Q 447.6 -3.8 441.5 -3.8 L 441.5 -3.8 L 441.5 -3.8 Q 433.9 -3.8 432.3 -9.3 L 432.3 -9.3 L 432.3 -9.3 Q 431.8 -11 431.8 -12.9 L 431.8 -12.9 L 431.8 -12.9 Q 431.8 -14.7 432.2 -16.6 L 432.2 -16.6 L 435.2 -32.6 L 448.2 -33.9 L 444.7 -15.3 L 444.7 -15.3 Q 444.5 -14.5 444.4 -13.6 L 444.4 -13.6 L 444.4 -13.6 Q 444.2 -12.7 444.2 -11.7 L 444.2 -11.7 L 444.2 -11.7 Q 444.2 -10.8 444.5 -10.2 L 444.5 -10.2 L 444.5 -10.2 Q 444.8 -9.6 445.3 -9.2 L 445.3 -9.2 L 445.3 -9.2 Q 446 -8.7 447.4 -8.7 L 447.4 -8.7 L 447.4 -8.7 Q 448.8 -8.7 449.9 -10.4 L 449.9 -10.4 L 449.9 -10.4 Q 451.1 -12 451.7 -14.9 L 451.7 -14.9 L 455.2 -32.6 L 467.8 -33.9 L 463 -8.8 L 463 -8.8 Q 460.7 3.5 455.8 8.4 L 455.8 8.4 L 455.8 8.4 Q 453.3 10.9 450.1 11.9 L 450.1 11.9 L 450.1 11.9 Q 446.9 12.9 442.7 12.9 L 442.7 12.9 L 442.7 12.9 Q 436 12.9 432.1 10.8 L 432.1 10.8 L 432.1 10.8 Q 428.3 8.6 428.3 5.1 L 428.3 5.1 L 428.3 5.1 Q 428.3 2.5 430.3 1 L 430.3 1 L 430.3 1 Q 432.3 -0.5 435.3 -0.5 L 435.3 -0.5 L 435.3 -0.5 Q 438 -0.5 440.1 0.6 L 440.1 0.6 L 440.1 0.6 Q 441.3 1.3 441.9 2.2 L 441.9 2.2 L 441.9 2.2 Q 440.4 3.5 440.4 5.6 L 440.4 5.6 L 440.4 5.6 Q 440.4 8.4 442.9 8.4 L 442.9 8.4 L 442.9 8.4 Q 447.2 8.4 449.6 -1.3 L 449.6 -1.3 L 449.6 -1.3 Q 450.3 -4.2 450.9 -7.2 Z" fill="url(#editing-shiny-gradient)"></path></g></g><g filter="url(#editing-shiny2)"><g transform="matrix(1,0,0,1,12,35.7)"><path d="M 18.3 69.9 L 4.3 69.9 L 12.4 27.6 L 26.5 27.6 L 18.3 69.9 Z M 74 71.2 L 74 71.2 L 74 71.2 Q 66.3 71.2 66.3 65.1 L 66.3 65.1 L 66.3 65.1 Q 66.3 62.5 67.4 57.4 L 67.4 57.4 L 67.4 57.4 Q 68.5 52.3 68.9 50.3 L 68.9 50.3 L 68.9 50.3 Q 69.8 45.6 69.8 44.2 L 69.8 44.2 L 69.8 44.2 Q 69.8 40.9 67.3 40.9 L 67.3 40.9 L 67.3 40.9 Q 65.7 40.9 64.2 43.1 L 64.2 43.1 L 64.2 43.1 Q 62.7 45.3 62 49.7 L 62 49.7 L 58 69.9 L 45.5 71.2 L 49 53.8 L 49 53.8 Q 49.5 50.9 50.1 47.6 L 50.1 47.6 L 50.1 47.6 Q 50.6 44.3 50.6 43.8 L 50.6 43.8 L 50.6 43.8 Q 50.6 40.9 48.4 40.9 L 48.4 40.9 L 48.4 40.9 Q 46.9 40.9 45.3 43.1 L 45.3 43.1 L 45.3 43.1 Q 43.7 45.2 42.8 49.7 L 42.8 49.7 L 38.9 69.9 L 26.3 71.2 L 33 37.2 L 43.5 36 L 42.4 42.4 L 42.4 42.4 Q 44 39 47.1 37.5 L 47.1 37.5 L 47.1 37.5 Q 50.2 36 55 36 L 55 36 L 55 36 Q 57.7 36 59.5 37.3 L 59.5 37.3 L 59.5 37.3 Q 61.3 38.7 61.9 40.8 L 61.9 40.8 L 61.9 40.8 Q 63 38.6 65.8 37.3 L 65.8 37.3 L 65.8 37.3 Q 68.6 36 72 36 L 72 36 L 72 36 Q 75.4 36 77.1 36.7 L 77.1 36.7 L 77.1 36.7 Q 78.8 37.4 79.8 38.7 L 79.8 38.7 L 79.8 38.7 Q 81.5 40.9 81.5 45 L 81.5 45 L 81.5 45 Q 81.5 49 79.8 57.4 L 79.8 57.4 L 79.8 57.4 Q 78.9 61.5 78.9 63 L 78.9 63 L 78.9 63 Q 78.9 64.5 79.8 65.4 L 79.8 65.4 L 79.8 65.4 Q 80.7 66.3 81.9 66.4 L 81.9 66.4 L 81.9 66.4 Q 81.3 68.6 79.1 69.9 L 79.1 69.9 L 79.1 69.9 Q 76.9 71.2 74 71.2 Z M 89.6 68 L 89.6 68 L 89.6 68 Q 88.1 66.3 87.5 63.7 L 87.5 63.7 L 87.5 63.7 Q 86.8 61.1 86.8 56.8 L 86.8 56.8 L 86.8 56.8 Q 86.8 52.5 88.3 48.6 L 88.3 48.6 L 88.3 48.6 Q 89.7 44.7 92.4 41.9 L 92.4 41.9 L 92.4 41.9 Q 97.9 36 107 36 L 107 36 L 107 36 Q 110.3 36 112.7 37.1 L 112.7 37.1 L 123.6 36 L 118.9 60.9 L 118.9 60.9 Q 118.7 61.7 118.7 63.1 L 118.7 63.1 L 118.7 63.1 Q 118.7 64.5 119.5 65.4 L 119.5 65.4 L 119.5 65.4 Q 120.4 66.3 121.7 66.4 L 121.7 66.4 L 121.7 66.4 Q 121 68.6 118.7 69.9 L 118.7 69.9 L 118.7 69.9 Q 116.4 71.2 113.7 71.2 L 113.7 71.2 L 113.7 71.2 Q 111.1 71.2 109.4 70.2 L 109.4 70.2 L 109.4 70.2 Q 107.6 69.2 107.1 67.5 L 107.1 67.5 L 107.1 67.5 Q 106.1 69.1 103.9 70.1 L 103.9 70.1 L 103.9 70.1 Q 101.7 71.2 98.8 71.2 L 98.8 71.2 L 98.8 71.2 Q 95.9 71.2 93.5 70.4 L 93.5 70.4 L 93.5 70.4 Q 91.1 69.6 89.6 68 Z M 103.1 42 L 103.1 42 L 103.1 42 Q 102.4 43.1 101.8 45.1 L 101.8 45.1 L 101.8 45.1 Q 101.1 47 100.1 52.3 L 100.1 52.3 L 100.1 52.3 Q 99 57.5 99 61.2 L 99 61.2 L 99 61.2 Q 99 64.9 99.6 66 L 99.6 66 L 99.6 66 Q 100.2 67.1 101.2 67.1 L 101.2 67.1 L 101.2 67.1 Q 103.2 67.1 104.7 65.1 L 104.7 65.1 L 104.7 65.1 Q 106.3 63.2 106.8 59.7 L 106.8 59.7 L 110.2 41 L 110.2 41 Q 108.9 39.8 107.3 39.8 L 107.3 39.8 L 107.3 39.8 Q 105.7 39.8 104.8 40.3 L 104.8 40.3 L 104.8 40.3 Q 103.9 40.8 103.1 42 Z M 131.3 43.1 L 131.3 43.1 L 131.3 43.1 Q 133.5 40.1 136.8 38 L 136.8 38 L 136.8 38 Q 140.1 36 144.1 36 L 144.1 36 L 144.1 36 Q 148.2 36 150.1 37.2 L 150.1 37.2 L 162.6 36 L 158.3 60.5 L 158.3 60.5 Q 156 73.1 151.3 78 L 151.3 78 L 151.3 78 Q 146.8 82.7 137.9 82.7 L 137.9 82.7 L 137.9 82.7 Q 131.2 82.7 127.4 80.6 L 127.4 80.6 L 127.4 80.6 Q 123.5 78.5 123.5 74.9 L 123.5 74.9 L 123.5 74.9 Q 123.5 72.3 125.5 70.8 L 125.5 70.8 L 125.5 70.8 Q 127.5 69.3 130.6 69.3 L 130.6 69.3 L 130.6 69.3 Q 133.3 69.3 135.3 70.5 L 135.3 70.5 L 135.3 70.5 Q 136.5 71.2 137.1 72.1 L 137.1 72.1 L 137.1 72.1 Q 135.6 73.3 135.6 75.5 L 135.6 75.5 L 135.6 75.5 Q 135.6 78.2 138.2 78.2 L 138.2 78.2 L 138.2 78.2 Q 142.5 78.2 144.9 68.1 L 144.9 68.1 L 144.9 68.1 Q 145.6 65.3 146.2 62.6 L 146.2 62.6 L 146.2 62.6 Q 143.3 66.1 136.8 66.1 L 136.8 66.1 L 136.8 66.1 Q 132.2 66.1 129.6 63.9 L 129.6 63.9 L 129.6 63.9 Q 127 61.8 127 56.6 L 127 56.6 L 127 56.6 Q 127 53.4 128.1 49.8 L 128.1 49.8 L 128.1 49.8 Q 129.2 46.2 131.3 43.1 Z M 139.7 56.8 L 139.7 56.8 L 139.7 56.8 Q 139.7 61.2 141.9 61.2 L 141.9 61.2 L 141.9 61.2 Q 143.4 61.2 144.9 59.5 L 144.9 59.5 L 144.9 59.5 Q 146.1 58.2 146.5 56.2 L 146.5 56.2 L 149.8 39.7 L 149.8 39.7 Q 149.5 39.7 149.1 39.5 L 149.1 39.5 L 149.1 39.5 Q 148.5 39.3 147.7 39.3 L 147.7 39.3 L 147.7 39.3 Q 143.8 39.3 141.5 45.7 L 141.5 45.7 L 141.5 45.7 Q 139.7 50.7 139.7 56.8 Z M 191.1 59.1 L 191.1 59.1 L 191.1 59.1 Q 192.7 60.2 192.7 62.6 L 192.7 62.6 L 192.7 62.6 Q 192.7 65 191.4 66.5 L 191.4 66.5 L 191.4 66.5 Q 190.2 68 188.2 69.1 L 188.2 69.1 L 188.2 69.1 Q 184.1 71.2 179.7 71.2 L 179.7 71.2 L 179.7 71.2 Q 175.3 71.2 172.7 70.2 L 172.7 70.2 L 172.7 70.2 Q 170.1 69.2 168.4 67.5 L 168.4 67.5 L 168.4 67.5 Q 165 64.1 165 57.9 L 165 57.9 L 165 57.9 Q 165 48.2 170.3 42.3 L 170.3 42.3 L 170.3 42.3 Q 175.9 36 185.7 36 L 185.7 36 L 185.7 36 Q 191.8 36 194.8 38.5 L 194.8 38.5 L 194.8 38.5 Q 197 40.4 197 43.6 L 197 43.6 L 197 43.6 Q 197 54.8 177.5 54.8 L 177.5 54.8 L 177.5 54.8 Q 177.3 56.5 177.3 57.9 L 177.3 57.9 L 177.3 57.9 Q 177.3 60.9 178.6 62 L 178.6 62 L 178.6 62 Q 179.9 63.1 182.3 63.1 L 182.3 63.1 L 182.3 63.1 Q 184.8 63.1 187.4 62 L 187.4 62 L 187.4 62 Q 190 60.9 191.1 59.1 Z M 178 52.1 L 178 52.1 L 178 52.1 Q 182.5 52.1 185.2 49.3 L 185.2 49.3 L 185.2 49.3 Q 187.8 46.6 187.8 42.3 L 187.8 42.3 L 187.8 42.3 Q 187.8 40.8 187.2 40 L 187.2 40 L 187.2 40 Q 186.7 39.2 185.6 39.2 L 185.6 39.2 L 185.6 39.2 Q 184.5 39.2 183.6 39.6 L 183.6 39.6 L 183.6 39.6 Q 182.7 40.1 181.7 41.5 L 181.7 41.5 L 181.7 41.5 Q 179.3 44.7 178 52.1 Z M 218.3 47.4 L 218.3 47.4 L 218.3 47.4 Q 219.2 45.1 219.2 43 L 219.2 43 L 219.2 43 Q 219.2 39.2 216.1 39.2 L 216.1 39.2 L 216.1 39.2 Q 214.5 39.2 213.2 40.7 L 213.2 40.7 L 213.2 40.7 Q 211.9 42.1 211.9 43.9 L 211.9 43.9 L 211.9 43.9 Q 211.9 45.2 212.9 46.2 L 212.9 46.2 L 212.9 46.2 Q 214.4 47.6 218.2 49.9 L 218.2 49.9 L 218.2 49.9 Q 222 52.2 223.4 54.1 L 223.4 54.1 L 223.4 54.1 Q 224.8 56 224.8 58.6 L 224.8 58.6 L 224.8 58.6 Q 224.8 61.2 223.6 63.5 L 223.6 63.5 L 223.6 63.5 Q 222.3 65.9 220.1 67.6 L 220.1 67.6 L 220.1 67.6 Q 215.3 71.2 207.6 71.2 L 207.6 71.2 L 207.6 71.2 Q 203.5 71.2 200.3 69 L 200.3 69 L 200.3 69 Q 197.1 66.9 197.1 64.4 L 197.1 64.4 L 197.1 64.4 Q 197.1 61.9 198.9 60.4 L 198.9 60.4 L 198.9 60.4 Q 200.7 58.9 203.4 58.9 L 203.4 58.9 L 203.4 58.9 Q 206.1 58.9 207.8 60 L 207.8 60 L 207.8 60 Q 206.9 62.1 206.9 63.5 L 206.9 63.5 L 206.9 63.5 Q 206.9 67.7 210.5 67.7 L 210.5 67.7 L 210.5 67.7 Q 212 67.7 213.1 66.7 L 213.1 66.7 L 213.1 66.7 Q 214.1 65.8 214.1 64.1 L 214.1 64.1 L 214.1 64.1 Q 214.1 60.9 208.6 57.4 L 208.6 57.4 L 208.6 57.4 Q 204.1 54.5 203.1 53.3 L 203.1 53.3 L 203.1 53.3 Q 201.4 51.3 201.4 48.7 L 201.4 48.7 L 201.4 48.7 Q 201.4 46.1 202.6 43.7 L 202.6 43.7 L 202.6 43.7 Q 203.8 41.3 206 39.5 L 206 39.5 L 206 39.5 Q 210.7 36 218.8 36 L 218.8 36 L 218.8 36 Q 223 36 225.5 37.6 L 225.5 37.6 L 225.5 37.6 Q 227.9 39.3 227.9 42.1 L 227.9 42.1 L 227.9 42.1 Q 227.9 44.9 226.2 46.5 L 226.2 46.5 L 226.2 46.5 Q 224.5 48.1 221.5 48.1 L 221.5 48.1 L 221.5 48.1 Q 219.3 48.1 218.3 47.4 Z M 269.4 49.3 L 282.3 48.1 L 282.3 48.1 Q 277.7 58.2 277.7 69.9 L 277.7 69.9 L 277.7 69.9 Q 276 71.2 273.5 71.2 L 273.5 71.2 L 273.5 71.2 Q 270.9 71.2 269.3 70 L 269.3 70 L 269.3 70 Q 267.7 68.8 267.4 67.6 L 267.4 67.6 L 267.4 67.6 Q 265.8 69.2 263.2 70.2 L 263.2 70.2 L 263.2 70.2 Q 260.6 71.2 257.9 71.2 L 257.9 71.2 L 257.9 71.2 Q 255.1 71.2 252.7 70.3 L 252.7 70.3 L 252.7 70.3 Q 250.3 69.4 248.5 67.4 L 248.5 67.4 L 248.5 67.4 Q 244.4 63 244.4 54.8 L 244.4 54.8 L 244.4 54.8 Q 244.4 42 251.2 34.3 L 251.2 34.3 L 251.2 34.3 Q 258.3 26.4 270.7 26.4 L 270.7 26.4 L 270.7 26.4 Q 279.4 26.4 282.4 30.8 L 282.4 30.8 L 282.4 30.8 Q 283.4 32.3 283.4 33.9 L 283.4 33.9 L 283.4 33.9 Q 283.4 35.6 282.7 37.1 L 282.7 37.1 L 282.7 37.1 Q 281.9 38.5 280.8 39.7 L 280.8 39.7 L 280.8 39.7 Q 278 42.2 274.6 42.2 L 274.6 42.2 L 274.6 42.2 Q 273.3 42.2 272 41.8 L 272 41.8 L 272 41.8 Q 272.3 39.9 272.3 37.6 L 272.3 37.6 L 272.3 37.6 Q 272.3 35.4 272.1 34.4 L 272.1 34.4 L 272.1 34.4 Q 271.9 33.3 271.6 32.5 L 271.6 32.5 L 271.6 32.5 Q 270.7 30.8 268.9 30.8 L 268.9 30.8 L 268.9 30.8 Q 267.1 30.8 265.1 32.7 L 265.1 32.7 L 265.1 32.7 Q 263.1 34.7 261.5 37.9 L 261.5 37.9 L 261.5 37.9 Q 257.9 45.1 257.9 53.7 L 257.9 53.7 L 257.9 53.7 Q 257.9 57.7 259.5 60.5 L 259.5 60.5 L 259.5 60.5 Q 261.1 63.5 264.1 63.5 L 264.1 63.5 L 264.1 63.5 Q 265.1 63.5 266 63 L 266 63 L 266 63 Q 267 62.5 267.3 62.1 L 267.3 62.1 L 269.4 49.3 Z M 288.2 68 L 288.2 68 L 288.2 68 Q 286.7 66.3 286.1 63.7 L 286.1 63.7 L 286.1 63.7 Q 285.4 61.1 285.4 56.8 L 285.4 56.8 L 285.4 56.8 Q 285.4 52.5 286.9 48.6 L 286.9 48.6 L 286.9 48.6 Q 288.3 44.7 291 41.9 L 291 41.9 L 291 41.9 Q 296.5 36 305.6 36 L 305.6 36 L 305.6 36 Q 308.9 36 311.2 37.1 L 311.2 37.1 L 322.2 36 L 317.5 60.9 L 317.5 60.9 Q 317.3 61.7 317.3 63.1 L 317.3 63.1 L 317.3 63.1 Q 317.3 64.5 318.1 65.4 L 318.1 65.4 L 318.1 65.4 Q 319 66.3 320.3 66.4 L 320.3 66.4 L 320.3 66.4 Q 319.6 68.6 317.3 69.9 L 317.3 69.9 L 317.3 69.9 Q 315 71.2 312.3 71.2 L 312.3 71.2 L 312.3 71.2 Q 309.7 71.2 307.9 70.2 L 307.9 70.2 L 307.9 70.2 Q 306.2 69.2 305.7 67.5 L 305.7 67.5 L 305.7 67.5 Q 304.7 69.1 302.5 70.1 L 302.5 70.1 L 302.5 70.1 Q 300.3 71.2 297.4 71.2 L 297.4 71.2 L 297.4 71.2 Q 294.5 71.2 292.1 70.4 L 292.1 70.4 L 292.1 70.4 Q 289.7 69.6 288.2 68 Z M 301.7 42 L 301.7 42 L 301.7 42 Q 301 43.1 300.4 45.1 L 300.4 45.1 L 300.4 45.1 Q 299.7 47 298.7 52.3 L 298.7 52.3 L 298.7 52.3 Q 297.6 57.5 297.6 61.2 L 297.6 61.2 L 297.6 61.2 Q 297.6 64.9 298.2 66 L 298.2 66 L 298.2 66 Q 298.8 67.1 299.8 67.1 L 299.8 67.1 L 299.8 67.1 Q 301.8 67.1 303.3 65.1 L 303.3 65.1 L 303.3 65.1 Q 304.8 63.2 305.4 59.7 L 305.4 59.7 L 308.8 41 L 308.8 41 Q 307.5 39.8 305.9 39.8 L 305.9 39.8 L 305.9 39.8 Q 304.3 39.8 303.4 40.3 L 303.4 40.3 L 303.4 40.3 Q 302.5 40.8 301.7 42 Z M 340.9 66.4 L 340.9 66.4 L 340.9 66.4 Q 339 71.2 332.6 71.2 L 332.6 71.2 L 332.6 71.2 Q 329.4 71.2 327.4 68.9 L 327.4 68.9 L 327.4 68.9 Q 325.7 67.1 325.7 65 L 325.7 65 L 325.7 65 Q 325.7 60.2 327.9 49.7 L 327.9 49.7 L 332.6 25.1 L 345.6 23.8 L 339.4 56.2 L 339.4 56.2 Q 338.3 60.9 338.3 62.6 L 338.3 62.6 L 338.3 62.6 Q 338.3 66.2 340.9 66.4 Z M 361.7 66.4 L 361.7 66.4 L 361.7 66.4 Q 359.7 71.2 353.4 71.2 L 353.4 71.2 L 353.4 71.2 Q 350.2 71.2 348.1 68.9 L 348.1 68.9 L 348.1 68.9 Q 346.4 67.1 346.4 65 L 346.4 65 L 346.4 65 Q 346.4 60.2 348.7 49.7 L 348.7 49.7 L 353.4 25.1 L 366.3 23.8 L 360.1 56.2 L 360.1 56.2 Q 359.1 60.9 359.1 62.6 L 359.1 62.6 L 359.1 62.6 Q 359.1 66.2 361.7 66.4 Z M 393 59.1 L 393 59.1 L 393 59.1 Q 394.6 60.2 394.6 62.6 L 394.6 62.6 L 394.6 62.6 Q 394.6 65 393.4 66.5 L 393.4 66.5 L 393.4 66.5 Q 392.2 68 390.2 69.1 L 390.2 69.1 L 390.2 69.1 Q 386.1 71.2 381.7 71.2 L 381.7 71.2 L 381.7 71.2 Q 377.3 71.2 374.7 70.2 L 374.7 70.2 L 374.7 70.2 Q 372.1 69.2 370.4 67.5 L 370.4 67.5 L 370.4 67.5 Q 367 64.1 367 57.9 L 367 57.9 L 367 57.9 Q 367 48.2 372.2 42.3 L 372.2 42.3 L 372.2 42.3 Q 377.9 36 387.7 36 L 387.7 36 L 387.7 36 Q 393.7 36 396.7 38.5 L 396.7 38.5 L 396.7 38.5 Q 399 40.4 399 43.6 L 399 43.6 L 399 43.6 Q 399 54.8 379.5 54.8 L 379.5 54.8 L 379.5 54.8 Q 379.3 56.5 379.3 57.9 L 379.3 57.9 L 379.3 57.9 Q 379.3 60.9 380.6 62 L 380.6 62 L 380.6 62 Q 381.9 63.1 384.3 63.1 L 384.3 63.1 L 384.3 63.1 Q 386.8 63.1 389.4 62 L 389.4 62 L 389.4 62 Q 391.9 60.9 393 59.1 Z M 380 52.1 L 380 52.1 L 380 52.1 Q 384.5 52.1 387.1 49.3 L 387.1 49.3 L 387.1 49.3 Q 389.8 46.6 389.8 42.3 L 389.8 42.3 L 389.8 42.3 Q 389.8 40.8 389.2 40 L 389.2 40 L 389.2 40 Q 388.7 39.2 387.6 39.2 L 387.6 39.2 L 387.6 39.2 Q 386.5 39.2 385.6 39.6 L 385.6 39.6 L 385.6 39.6 Q 384.7 40.1 383.7 41.5 L 383.7 41.5 L 383.7 41.5 Q 381.3 44.7 380 52.1 Z M 421.2 51.9 L 421.2 51.9 L 421.2 51.9 Q 423.5 47.8 423.5 43.6 L 423.5 43.6 L 423.5 43.6 Q 423.5 40.9 421.5 40.9 L 421.5 40.9 L 421.5 40.9 Q 420 40.9 418.4 43.5 L 418.4 43.5 L 418.4 43.5 Q 416.7 46.1 416.2 49.5 L 416.2 49.5 L 412.9 69.9 L 399.6 71.2 L 406.2 37.2 L 416.7 36 L 415.6 42.4 L 415.6 42.4 Q 418.7 36 425.7 36 L 425.7 36 L 425.7 36 Q 429.5 36 431.5 37.9 L 431.5 37.9 L 431.5 37.9 Q 433.5 39.8 433.5 43.7 L 433.5 43.7 L 433.5 43.7 Q 433.5 47.7 430.9 50.2 L 430.9 50.2 L 430.9 50.2 Q 428.3 52.7 423.9 52.7 L 423.9 52.7 L 423.9 52.7 Q 422 52.7 421.2 51.9 Z M 454.9 62.7 L 454.9 62.7 L 454.9 62.7 Q 451.5 66.1 445.5 66.1 L 445.5 66.1 L 445.5 66.1 Q 437.8 66.1 436.2 60.5 L 436.2 60.5 L 436.2 60.5 Q 435.7 58.9 435.7 57 L 435.7 57 L 435.7 57 Q 435.7 55.2 436.1 53.2 L 436.1 53.2 L 439.1 37.2 L 452.1 36 L 448.6 54.6 L 448.6 54.6 Q 448.5 55.4 448.3 56.3 L 448.3 56.3 L 448.3 56.3 Q 448.1 57.2 448.1 58.1 L 448.1 58.1 L 448.1 58.1 Q 448.1 59.1 448.4 59.7 L 448.4 59.7 L 448.4 59.7 Q 448.7 60.3 449.2 60.7 L 449.2 60.7 L 449.2 60.7 Q 449.9 61.2 451.3 61.2 L 451.3 61.2 L 451.3 61.2 Q 452.7 61.2 453.9 59.5 L 453.9 59.5 L 453.9 59.5 Q 455.1 57.9 455.6 55 L 455.6 55 L 459.1 37.2 L 471.8 36 L 467 61.1 L 467 61.1 Q 464.6 73.4 459.7 78.3 L 459.7 78.3 L 459.7 78.3 Q 457.2 80.8 454 81.8 L 454 81.8 L 454 81.8 Q 450.8 82.7 446.6 82.7 L 446.6 82.7 L 446.6 82.7 Q 439.9 82.7 436 80.6 L 436 80.6 L 436 80.6 Q 432.2 78.5 432.2 75 L 432.2 75 L 432.2 75 Q 432.2 72.4 434.2 70.9 L 434.2 70.9 L 434.2 70.9 Q 436.2 69.4 439.2 69.4 L 439.2 69.4 L 439.2 69.4 Q 441.9 69.4 444 70.5 L 444 70.5 L 444 70.5 Q 445.2 71.2 445.8 72.1 L 445.8 72.1 L 445.8 72.1 Q 444.3 73.4 444.3 75.5 L 444.3 75.5 L 444.3 75.5 Q 444.3 78.3 446.9 78.3 L 446.9 78.3 L 446.9 78.3 Q 451.1 78.3 453.5 68.6 L 453.5 68.6 L 453.5 68.6 Q 454.2 65.7 454.9 62.7 Z" fill="url(#editing-shiny-gradient2)"></path></g></g><style>text {
  font-size: 64px;
  font-family: Arial Black;
  dominant-baseline: central;
  text-anchor: middle;
}</style></svg>